<?xml version="1.0" encoding="UTF-8" standalone="no"?>
<svg width="59px" height="59px" viewBox="0 0 59 59" version="1.1" xmlns="http://www.w3.org/2000/svg" xmlns:xlink="http://www.w3.org/1999/xlink" xmlns:sketch="http://www.bohemiancoding.com/sketch/ns">
    <!-- Generator: sketchtool 3.4.4 (395) - http://www.bohemiancoding.com/sketch -->
    <title>Add_Photo_Icon</title>
    <desc>Created with sketchtool.</desc>
    <defs></defs>
    <g id="Desktop-Pixel-Perfect" stroke="none" stroke-width="1" fill="none" fill-rule="evenodd" sketch:type="MSPage">
        <g id="00_03_DesktopDash_LoginRegister_Register" sketch:type="MSArtboardGroup" transform="translate(-254.000000, -315.000000)">
            <g id="Invite-People" sketch:type="MSLayerGroup" transform="translate(215.000000, 276.000000)">
                <g id="Add-Photo" transform="translate(40.000000, 40.000000)" sketch:type="MSShapeGroup">
                    <g id="Add_Photo_Icon">
                        <circle id="Oval-149" stroke="#FF6600" stroke-width="2" cx="28.5" cy="28.5" r="28.5"></circle>
                        <path d="M35.3233866,32.3932519 C37.7116998,30.5069618 39.2509233,27.5877557 39.2509233,24.302229 C39.2509233,18.6125802 34.6508842,14 28.9767047,14 C23.3025253,14 18.7024861,18.6125802 18.7024861,24.302229 C18.7024861,27.5877099 20.2417553,30.5069618 22.6300228,32.3932519 C18.3475302,34.5819695 15.3334421,38.9052214 15,43.9701374 L16.8708385,43.9701374 C17.231367,39.2274351 20.3061599,35.2526412 24.5382251,33.5826718 C25.88323,34.2307634 27.3851354,34.6045496 28.9767047,34.6045496 C30.5692333,34.6045496 32.0701794,34.2308092 33.4151387,33.5826718 C37.6472039,35.2526412 40.7219967,39.2274351 41.0825253,43.9701374 L42.9533638,43.9701374 C42.6208809,38.9052214 39.6058336,34.5819695 35.3233866,32.3932519 L35.3233866,32.3932519 Z M28.9767047,32.7314046 C24.3336835,32.7314046 20.5704927,28.9579542 20.5704927,24.302229 C20.5704927,19.6465496 24.3336835,15.873145 28.9767047,15.873145 C33.6197259,15.873145 37.3829168,19.6465496 37.3829168,24.302229 C37.3828711,28.9579542 33.6197259,32.7314046 28.9767047,32.7314046 L28.9767047,32.7314046 Z" id="Shape" fill="#FF6600"></path>
                    </g>
                </g>
            </g>
        </g>
    </g>
</svg>