<?xml version="1.0" encoding="UTF-8" standalone="no"?>
<svg width="16px" height="18px" viewBox="0 0 16 18" version="1.1" xmlns="http://www.w3.org/2000/svg" xmlns:xlink="http://www.w3.org/1999/xlink" xmlns:sketch="http://www.bohemiancoding.com/sketch/ns">
    <!-- Generator: sketchtool 3.4 (381) - http://www.bohemiancoding.com/sketch -->
    <title>Challenger_Icon_Off</title>
    <desc>Created with sketchtool.</desc>
    <defs></defs>
    <g id="Mobile-Pixel-Perfect" stroke="none" stroke-width="1" fill="none" fill-rule="evenodd" sketch:type="MSPage">
        <g id="00_00_MobileDash_Menu-" sketch:type="MSArtboardGroup" transform="translate(-15.000000, -166.000000)" fill="#FFFFFF">
            <g id="Challenger" sketch:type="MSLayerGroup" transform="translate(0.000000, 150.000000)">
                <g id="Challenger_Icon_Off" transform="translate(15.000000, 16.000000)" sketch:type="MSShapeGroup">
                    <path d="M12.8957519,7.19348276 C15.7033178,5.50750345 15.9653333,2.66008966 15.9653333,2.5101931 C15.9653333,1.42367586 15.1043721,0.561972414 14.0187907,0.561972414 C13.7193178,0.561972414 13.419845,0.636889655 13.1578295,0.786786207 L13.1578295,0 L2.82604651,0 L2.82604651,0.786786207 C2.56403101,0.636951724 2.26455814,0.561972414 1.96508527,0.561972414 C0.879503876,0.561972414 0.0185426357,1.42367586 0.0185426357,2.54768276 C0.0185426357,2.66008966 0.28055814,5.50750345 3.08812403,7.19348276 C3.57475969,8.61722069 4.69779845,9.74116552 6.08285271,10.2282207 L6.08285271,12.1764414 L3.49990698,12.1764414 L2.37686822,17.9836759 L13.6444651,17.9836759 L12.484031,12.213869 L9.90108527,12.213869 L9.90108527,10.2656483 C11.2860775,9.74122759 12.4091163,8.61722069 12.8957519,7.19348276 L12.8957519,7.19348276 Z M13.1577674,1.68597931 C13.3823876,1.46116552 13.6818605,1.31133103 14.0187287,1.31133103 C14.6925271,1.31133103 15.2166202,1.83587586 15.2166202,2.47276552 C15.2166202,2.51025517 15.0294574,4.57088276 13.1203101,6.10696552 C13.1203101,5.91964138 13.1577674,5.76974483 13.1577674,5.58242069 L13.1577674,1.68597931 L13.1577674,1.68597931 L13.1577674,1.68597931 Z M0.767131783,2.51025517 C0.767131783,1.83587586 1.29122481,1.31133103 1.96502326,1.31133103 C2.30195349,1.31133103 2.60142636,1.42373793 2.8259845,1.68597931 L2.8259845,1.68597931 L2.8259845,5.61991034 C2.8259845,5.80723448 2.8259845,5.95713103 2.86344186,6.14445517 C0.991751938,4.6458 0.767131783,2.58517241 0.767131783,2.51025517 L0.767131783,2.51025517 Z M3.57469767,5.58248276 L3.57469767,0.749296552 L12.4091163,0.749296552 L12.4091163,5.58248276 C12.4091163,7.90541379 10.5374264,9.77871724 8.21649612,9.77871724 L7.76725581,9.77871724 C5.4463876,9.77865517 3.57469767,7.90535172 3.57469767,5.58248276 L3.57469767,5.58248276 Z M9.90102326,12.9632897 L11.8475659,12.9632897 L12.7085271,17.2344414 L3.27522481,17.2344414 L4.13618605,12.9632897 L6.08272868,12.9632897 L9.90102326,12.9632897 L9.90102326,12.9632897 L9.90102326,12.9632897 Z M8.40365891,10.5280138 C8.62827907,10.5280138 8.89029457,10.4905241 9.11491473,10.4530966 L9.11491473,12.1765655 L6.83144186,12.1765655 L6.83144186,10.4905862 C7.09345736,10.5280759 7.31807752,10.5655034 7.54269767,10.5655034 L7.72986047,10.5655034 L8.17910078,10.5655034 L8.40372093,10.5655034 L8.40372093,10.5280138 L8.40365891,10.5280138 Z" id="Shape"></path>
                </g>
            </g>
        </g>
    </g>
</svg>