<?xml version="1.0" encoding="UTF-8" standalone="no"?>
<svg width="38px" height="20px" viewBox="0 0 38 20" version="1.1" xmlns="http://www.w3.org/2000/svg" xmlns:xlink="http://www.w3.org/1999/xlink">
    <!-- Generator: sketchtool 3.6.1 (26313) - http://www.bohemiancoding.com/sketch -->
    <title>Inactive</title>
    <desc>Created with sketchtool.</desc>
    <defs></defs>
    <g id="Desktop-Pixel-Perfect" stroke="none" stroke-width="1" fill="none" fill-rule="evenodd">
        <g id="02_01_DesktopDash_ManagePeople" transform="translate(-658.000000, -278.000000)" fill="#9B9B9B">
            <g id="List" transform="translate(14.000000, 145.000000)">
                <g id="Group-Copy-6" transform="translate(0.000000, 119.000000)">
                    <g id="Trash" transform="translate(470.000000, 14.000000)">
                        <g id="Inactive" transform="translate(174.000000, 0.000000)">
                            <path d="M27.5,0 L9.86434109,0 C4.4144186,0.0641085271 0,4.51612403 0,9.98062016 C0,15.4451163 4.4144186,19.8971318 9.86434109,19.9597674 C9.86434109,19.9612403 27.5,19.9612403 27.5,19.9612403 C33.0033333,19.9612403 37.4806202,15.4839535 37.4806202,9.98062016 C37.4806202,4.47728682 33.0033333,0 27.5,0 L27.5,0 Z M26.9806202,17.6356589 C22.7596124,17.6356589 19.3255814,14.2016279 19.3255814,9.98062016 C19.3255814,5.7596124 22.7596124,2.3255814 26.9806202,2.3255814 C31.2016279,2.3255814 34.6356589,5.7596124 34.6356589,9.98062016 C34.6356589,14.2016279 31.2016279,17.6356589 26.9806202,17.6356589 L26.9806202,17.6356589 Z" id="Shape"></path>
                        </g>
                    </g>
                </g>
            </g>
        </g>
    </g>
</svg>