<?xml version="1.0" encoding="UTF-8" standalone="no"?>
<svg width="20px" height="18px" viewBox="0 0 20 18" version="1.1" xmlns="http://www.w3.org/2000/svg" xmlns:xlink="http://www.w3.org/1999/xlink" xmlns:sketch="http://www.bohemiancoding.com/sketch/ns">
    <!-- Generator: sketchtool 3.4 (381) - http://www.bohemiancoding.com/sketch -->
    <title>Innovation_Icon_Off</title>
    <desc>Created with sketchtool.</desc>
    <defs></defs>
    <g id="Mobile-Pixel-Perfect" stroke="none" stroke-width="1" fill="none" fill-rule="evenodd" sketch:type="MSPage">
        <g id="00_00_MobileDash_Menu-" sketch:type="MSArtboardGroup" transform="translate(-14.000000, -216.000000)" fill="#FFFFFF">
            <g id="Innovation-Stats" sketch:type="MSLayerGroup" transform="translate(0.000000, 200.000000)">
                <g id="Innovation_Icon_Off" transform="translate(14.000000, 16.000000)" sketch:type="MSShapeGroup">
                    <path d="M19.2080717,17.97804 L0.783991031,17.97804 C0.352780269,17.97804 0,17.624025 0,17.191305 L0,0.80073 C0,0.36801 0.352780269,0.013995 0.783991031,0.013995 C1.21520179,0.013995 1.56798206,0.36801 1.56798206,0.80073 L1.56798206,16.40457 L19.2080717,16.40457 C19.6392825,16.40457 19.9920628,16.758585 19.9920628,17.191305 C19.9920628,17.624025 19.6392825,17.97804 19.2080717,17.97804 L19.2080717,17.97804 Z M9.26430493,5.25897 C8.95071749,5.00985 8.49336323,5.04918 8.21896861,5.33763 L3.29282511,10.54332 C2.992287,10.858005 3.00533632,11.35629 3.31896861,11.65788 C3.47578475,11.802105 3.65869955,11.86767 3.85470852,11.86767 C4.06376682,11.86767 4.27282511,11.78901 4.42964126,11.61855 L8.87233184,6.924285 L11.6947534,9.100935 C12.0083408,9.350055 12.4656951,9.310725 12.7400897,9.009135 L18.2934529,3.095415 L18.2934529,6.570225 C18.2934529,7.002945 18.6462332,7.35696 19.0774439,7.35696 C19.5086547,7.35696 19.861435,7.002945 19.861435,6.570225 L19.861435,1.19412 C19.861435,0.7614 19.5086547,0.407385 19.0774439,0.407385 L13.8507175,0.407385 C13.4195067,0.407385 13.0667265,0.7614 13.0667265,1.19412 C13.0667265,1.62684 13.4195067,1.980855 13.8507175,1.980855 L17.1827354,1.980855 L12.0867265,7.435665 L9.26430493,5.25897 L9.26430493,5.25897 Z" id="Shape"></path>
                </g>
            </g>
        </g>
    </g>
</svg>