<?xml version="1.0" encoding="UTF-8" standalone="no"?>
<svg width="225px" height="58px" viewBox="0 0 225 58" version="1.1" xmlns="http://www.w3.org/2000/svg" xmlns:xlink="http://www.w3.org/1999/xlink" xmlns:sketch="http://www.bohemiancoding.com/sketch/ns">
    <!-- Generator: sketchtool 3.4.4 (395) - http://www.bohemiancoding.com/sketch -->
    <title>Logo</title>
    <desc>Created with sketchtool.</desc>
    <defs>
        <path id="path-1" d="M0,0.385285714 L224.755234,0.385285714 L224.755234,58 L0,58 L0,0.385285714 Z"></path>
        <path id="path-3" d="M0,0.385285714 L224.755234,0.385285714 L224.755234,58 L0,58 L0,0.385285714 Z"></path>
    </defs>
    <g id="Desktop-Pixel-Perfect" stroke="none" stroke-width="1" fill="none" fill-rule="evenodd" sketch:type="MSPage">
        <g id="00_02_DesktopDash_LoginRegisterFill" sketch:type="MSArtboardGroup" transform="translate(-473.000000, -299.000000)">
            <g id="Invite-People" sketch:type="MSLayerGroup" transform="translate(404.000000, 259.000000)">
                <g id="Logo" transform="translate(69.000000, 40.000000)">
                    <path d="M92.2143231,19.7742714 C92.7673309,18.9954143 93.3737231,18.2704143 94.0157049,17.6213667 C94.0348686,17.6034143 94.055401,17.584081 94.0759335,17.5633667 C94.1060478,17.5371286 94.1334244,17.5108905 94.1621699,17.4818905 L95.1874244,16.4710333 L93.9253621,15.786081 C93.4736478,15.5388905 93.0109829,15.3137952 92.5469491,15.1107952 C90.5730945,14.2477 88.4390868,13.8099381 86.2051543,13.8099381 C83.8918296,13.8099381 81.7071751,14.2477 79.7127881,15.1094143 C77.726614,15.9683667 75.975879,17.1532238 74.5098608,18.6336048 C73.0411049,20.1139857 71.8666478,21.8926524 71.013866,23.9198905 C70.1610842,25.9512714 69.7271647,28.1442238 69.7271647,30.4352238 L69.7271647,46.9776524 L74.994427,46.9776524 L74.994427,30.4352238 C74.994427,28.8084619 75.2750374,27.3708905 75.8554218,26.0355095 C76.4741335,24.6076048 77.2639491,23.4227476 78.2686712,22.4077476 C79.3007699,21.3678905 80.475227,20.5641762 81.8577465,19.9551762 C83.2169958,19.3517 84.6816452,19.0492714 86.2092608,19.0492714 C87.7382452,19.0492714 89.2042634,19.3517 90.5662504,19.9524143 C90.6511179,19.991081 90.7359855,20.0311286 90.8181153,20.0725571 L91.6996426,20.4951286 L92.2143231,19.7742714 Z" id="Fill-1" fill="#FFFFFF" sketch:type="MSShapeGroup"></path>
                    <mask id="mask-2" sketch:name="Clip 4" fill="white">
                        <use xlink:href="#path-1"></use>
                    </mask>
                    <g id="Clip-4"></g>
                    <path d="M223.492487,15.7864952 C223.040773,15.5379238 222.576739,15.3128286 222.114074,15.1112095 C220.140219,14.2481143 218.004843,13.8089714 215.772279,13.8089714 C213.458955,13.8089714 211.275669,14.2481143 209.278544,15.1098286 C207.295108,15.968781 205.544373,17.1536381 204.075617,18.634019 C202.610968,20.1144 201.435142,21.8930667 200.580991,23.9203048 C199.728209,25.9503048 199.292921,28.1432571 199.292921,30.4342571 L199.292921,46.9780667 L204.560183,46.9780667 L204.560183,30.4342571 C204.560183,28.8088762 204.8449,27.3713048 205.419809,26.0359238 C206.042627,24.608019 206.833812,23.421781 207.835796,22.4081619 C208.866526,21.3683048 210.040983,20.5645905 211.42624,19.9555905 C212.784121,19.3521143 214.24877,19.0483048 215.780492,19.0483048 C217.306739,19.0483048 218.772757,19.3521143 220.133375,19.9528286 C220.219612,19.9914952 220.304479,20.0315429 220.38524,20.0729714 L221.268136,20.4955429 L221.781448,19.7746857 C222.335825,18.9944476 222.940848,18.2694476 223.584199,17.621781 C223.603362,17.6010667 223.625264,17.5831143 223.645796,17.5624 C223.673173,17.5361619 223.701918,17.5113048 223.729295,17.4823048 L224.755918,16.4714476 L223.492487,15.7864952 Z" id="Fill-3" fill="#FFFFFF" sketch:type="MSShapeGroup" mask="url(#mask-2)"></path>
                    <path d="M158.116152,13.6841333 L144.051412,40.4469905 L129.983934,13.6841333 L124.221155,13.6841333 L141.720292,46.9775143 L146.378425,46.9775143 L163.8803,13.6841333 L158.116152,13.6841333 Z" id="Fill-6" fill="#FFFFFF" sketch:type="MSShapeGroup" mask="url(#mask-2)"></path>
                    <path d="M109.354143,19.048719 C110.736662,19.048719 112.080854,19.3069571 113.347023,19.8137667 C114.630987,20.3288619 115.799969,21.0317667 116.815641,21.9059095 C117.810782,22.760719 118.652613,23.8254333 119.317865,25.0724333 C119.805169,25.9866238 120.161065,26.8911476 120.406085,27.8509095 L98.3049374,27.8509095 C98.5472205,26.8897667 98.9031166,25.9852429 99.3904205,25.0724333 C100.050197,23.8378619 100.892028,22.7745286 101.891275,21.9141952 C102.919267,21.0317667 104.077298,20.327481 105.335254,19.8151476 C106.584997,19.3069571 107.937402,19.048719 109.354143,19.048719 M121.069969,18.6330524 C119.60395,17.1581952 117.839527,15.9705762 115.82187,15.107481 C113.808319,14.2471476 111.631878,13.8093857 109.359618,13.8093857 C107.044924,13.8093857 104.858901,14.2471476 102.865883,15.1102429 C100.876971,15.9691952 99.1234984,17.1540524 97.6574803,18.6330524 C96.1914621,20.1161952 95.0142673,21.893481 94.1614855,23.9193381 C93.3087036,25.9521 92.8775218,28.1436714 92.8775218,30.4346714 C92.8775218,32.768481 93.3087036,34.972481 94.1628543,36.9845286 C95.0156361,38.9896714 96.1914621,40.7572905 97.6574803,42.2349095 C99.1221296,43.7139095 100.876971,44.9001476 102.863145,45.7618619 C104.857532,46.6221952 107.042187,47.0599571 109.354143,47.0599571 C111.152787,47.0599571 112.911735,46.7561476 114.58034,46.1581952 C116.235257,45.5630048 117.769717,44.7510048 119.138548,43.7429095 C120.515592,42.7292905 121.732483,41.5002429 122.760475,40.0889095 C123.462685,39.1222429 124.069078,38.0713381 124.561857,36.9651952 L125.229846,35.4668619 L119.476649,35.4668619 L119.176875,36.0192429 C118.333675,37.5783381 117.174275,38.8819571 115.727421,39.8955762 C113.898662,41.1729571 111.75781,41.8206238 109.354143,41.8206238 C107.934665,41.8206238 106.582259,41.5651476 105.335254,41.059719 C104.069085,40.5446238 102.911054,39.8403381 101.891275,38.9648143 C100.905717,38.1155286 100.063885,37.0521952 99.3890517,35.8038143 C98.9181738,34.9379571 98.5526958,33.9947667 98.3008309,32.9880524 L125.903311,32.9880524 L125.903311,30.4346714 C125.903311,28.1989095 125.45981,26.0073381 124.582389,23.9193381 C123.740558,21.9141952 122.557888,20.1369095 121.069969,18.6330524" id="Fill-8" fill="#FFFFFF" sketch:type="MSShapeGroup" mask="url(#mask-2)"></path>
                    <path d="M189.676745,27.8509095 L167.576966,27.8509095 C167.820618,26.8897667 168.176514,25.9866238 168.663818,25.0724333 C169.324963,23.8378619 170.165425,22.7745286 171.166041,21.9141952 C172.192664,21.0331476 173.352064,20.327481 174.608651,19.8151476 C175.859763,19.3083381 177.210799,19.048719 178.62754,19.048719 C180.011428,19.048719 181.354251,19.3083381 182.62042,19.8137667 C183.907122,20.3288619 185.073366,21.0331476 186.090407,21.9059095 C187.08281,22.760719 187.92601,23.8254333 188.589893,25.0724333 C189.078566,25.9880048 189.433093,26.8911476 189.676745,27.8509095 M190.315989,18.6330524 C188.845864,17.1512905 187.085548,15.9636714 185.084316,15.1088619 C183.066659,14.2471476 180.895693,13.8093857 178.626171,13.8093857 C176.314215,13.8093857 174.129561,14.2485286 172.136542,15.1102429 C170.144893,15.9691952 168.398264,17.1540524 166.929509,18.6330524 C165.46349,20.1148143 164.287664,21.893481 163.433514,23.9193381 C162.582101,25.9521 162.150919,28.1436714 162.150919,30.4346714 C162.150919,32.768481 162.582101,34.972481 163.436251,36.9845286 C164.287664,38.9896714 165.46349,40.7572905 166.932246,42.2349095 C168.396896,43.7139095 170.144893,44.9001476 172.136542,45.7618619 C174.129561,46.6221952 176.314215,47.0599571 178.62754,47.0599571 C180.426184,47.0599571 182.182394,46.7561476 183.853737,46.1581952 C185.505916,45.5630048 187.041745,44.7510048 188.410576,43.7429095 C189.788989,42.7306714 191.00588,41.5002429 192.031135,40.0889095 C192.734714,39.1250048 193.343844,38.0713381 193.833885,36.9651952 L194.504612,35.4668619 L188.748677,35.4668619 L188.450272,36.0192429 C187.607072,37.5783381 186.444935,38.8819571 185.000818,39.8955762 C183.173428,41.1743381 181.031207,41.8206238 178.62754,41.8206238 C177.208062,41.8206238 175.855657,41.5651476 174.607283,41.059719 C173.341114,40.5446238 172.183083,39.8403381 171.166041,38.9648143 C170.180483,38.1155286 169.337283,37.0521952 168.66108,35.8038143 C168.190202,34.9379571 167.828831,33.9947667 167.575597,32.9880524 L195.075415,32.9880524 L195.075415,30.4346714 C195.075415,28.1201952 194.649709,25.9286238 193.803771,23.9193381 C192.94962,21.8851952 191.776532,20.1079095 190.315989,18.6330524" id="Fill-10" fill="#FFFFFF" sketch:type="MSShapeGroup" mask="url(#mask-2)"></path>
                    <path d="M40.4180255,15.4763333 C37.2464436,12.6812857 33.0947787,10.9868571 28.5557345,10.9868571 C18.5892748,10.9868571 10.5090644,19.138619 10.5090644,29.1933333 C10.5090644,29.4419048 10.5159086,29.6904762 10.5268592,29.9376667 L1.10108779,21.2514762 C4.51632156,9.20266667 15.5162488,0.385285714 28.5557345,0.385285714 C44.3246696,0.385285714 57.1081839,13.283381 57.1081839,29.1933333 C57.1081839,29.7332857 57.0931268,30.2732381 57.0630125,30.8062857 L40.4180255,15.4763333 Z" id="Fill-12" fill="#1783C6" sketch:type="MSShapeGroup" mask="url(#mask-2)"></path>
                    <mask id="mask-4" sketch:name="Clip 15" fill="white">
                        <use xlink:href="#path-3"></use>
                    </mask>
                    <g id="Clip-15"></g>
                    <path d="M16.0009519,42.2687429 C19.2478195,45.4421714 23.6732506,47.398981 28.5558714,47.398981 C38.5209623,47.398981 46.5998039,39.247219 46.5998039,29.1925048 C46.5998039,28.9494571 46.5943286,28.7077905 46.5861156,28.4633619 L56.0064117,37.1467905 C52.5870714,49.1886952 41.5912506,58.0005524 28.5558714,58.0005524 C12.7841987,58.0005524 0.000684415584,45.1038381 0.000684415584,29.1925048 C0.000684415584,28.6566952 0.0157415584,28.1250286 0.044487013,27.5947429 L16.0009519,42.2687429 Z" id="Fill-14" fill="#FFFFFF" sketch:type="MSShapeGroup" mask="url(#mask-4)"></path>
                </g>
            </g>
        </g>
    </g>
</svg>