<?xml version="1.0" encoding="UTF-8" standalone="no"?>
<svg width="18px" height="18px" viewBox="0 0 18 18" version="1.1" xmlns="http://www.w3.org/2000/svg" xmlns:xlink="http://www.w3.org/1999/xlink" xmlns:sketch="http://www.bohemiancoding.com/sketch/ns">
    <!-- Generator: sketchtool 3.4 (381) - http://www.bohemiancoding.com/sketch -->
    <title>ManagePeople_Icon_Off</title>
    <desc>Created with sketchtool.</desc>
    <defs></defs>
    <g id="Mobile-Pixel-Perfect" stroke="none" stroke-width="1" fill="none" fill-rule="evenodd" sketch:type="MSPage">
        <g id="00_00_MobileDash_Menu-" sketch:type="MSArtboardGroup" transform="translate(-14.000000, -116.000000)" fill="#FFFFFF">
            <g id="Manage-People" sketch:type="MSLayerGroup" transform="translate(0.000000, 100.000000)">
                <g id="ManagePeople_Icon_Off" transform="translate(14.000000, 16.000000)" sketch:type="MSShapeGroup">
                    <path d="M1.23539062,16.7629219 C1.16564062,16.6920469 1.12640625,16.5943125 1.12767187,16.4948906 C1.130625,16.3058906 1.18265625,14.6233125 2.07028125,13.735125 C2.47978125,13.3253438 3.33759375,12.8815313 4.59914062,12.2499844 C5.94548437,11.5770937 6.6920625,11.17575 7.03617187,10.8503437 L7.79484375,10.132875 L7.13559375,9.322875 C6.09735937,8.047125 5.50167187,6.63834375 5.50167187,5.45821875 C5.50167187,4.54795312 5.50167187,3.51632812 5.93240625,2.66301562 C6.4479375,1.6425 7.480125,1.125 9.001125,1.125 C10.5218437,1.125 11.5545937,1.6425 12.0695625,2.662875 C12.5002969,3.51646875 12.5002969,4.54809375 12.5002969,5.45835937 C12.5002969,6.63834375 11.9048906,8.04698437 10.8660937,9.32301563 L10.2068437,10.1332969 L10.9659375,10.8510469 C11.1379219,11.0133281 11.410875,11.1951563 11.8094062,11.4204375 L11.8094062,10.125 L11.8549687,10.125 C11.81025,10.092375 11.7667969,10.0601719 11.7385312,10.0333125 C12.9322969,8.56603125 13.6247344,6.90904687 13.6247344,5.45835937 C13.6247344,4.47398437 13.6247344,3.24871875 13.0737656,2.15620312 C12.5772187,1.17253125 11.4678281,0 9.001125,0 C6.53442187,0 5.42489062,1.17253125 4.92848437,2.1560625 C4.37695312,3.24871875 4.37695312,4.4735625 4.37695312,5.45821875 C4.37695312,6.9091875 5.06939062,8.56603125 6.26329687,10.0331719 C5.97825,10.3028906 4.802625,10.8907031 4.09626562,11.2435313 C2.69521875,11.9444063 1.80632812,12.4077656 1.27490625,12.9396094 C0.098015625,14.1167813 0.009,16.0927031 0.003234375,16.4771719 C-0.00309375,16.8782344 0.151875,17.2659375 0.43396875,17.5526719 C0.71578125,17.8382813 1.1008125,17.9998594 1.5024375,17.9998594 L11.8095469,17.9998594 L11.8095469,16.8748594 L1.5024375,16.8748594 C1.40273437,16.875 1.30514062,16.8343594 1.23539062,16.7629219 L1.23539062,16.7629219 Z M16.3094062,12.375 L15.7469062,12.375 L15.7469062,11.8125 C15.7469062,10.8819844 14.9899219,10.125 14.0594062,10.125 C13.1288906,10.125 12.3720469,10.8819844 12.3720469,11.8125 L12.3720469,12.375 L11.8095469,12.375 C10.8790312,12.375 10.1220469,13.1319844 10.1220469,14.0625 C10.1220469,14.9930156 10.8790312,15.75 11.8095469,15.75 L12.3720469,15.75 L12.3720469,16.3125 C12.3720469,17.2430156 13.1288906,18 14.0594062,18 C14.9899219,18 15.7469062,17.2430156 15.7469062,16.3125 L15.7469062,15.75 L16.3094062,15.75 C17.2399219,15.75 17.9969062,14.9930156 17.9969062,14.0625 C17.9969062,13.1319844 17.2399219,12.375 16.3094062,12.375 L16.3094062,12.375 Z M16.3094062,14.625 L14.6219062,14.625 L14.6219062,16.3125 C14.6219062,16.6234219 14.3703281,16.875 14.0594062,16.875 C13.7484844,16.875 13.4969062,16.6234219 13.4969062,16.3125 L13.4969062,14.625 L11.8095469,14.625 C11.498625,14.625 11.2470469,14.3734219 11.2470469,14.0625 C11.2470469,13.7515781 11.498625,13.5 11.8095469,13.5 L13.4969062,13.5 L13.4969062,11.8125 C13.4969062,11.5015781 13.7484844,11.25 14.0594062,11.25 C14.3703281,11.25 14.6219062,11.5015781 14.6219062,11.8125 L14.6219062,13.5 L16.3094062,13.5 C16.6203281,13.5 16.8719062,13.7515781 16.8719062,14.0625 C16.8719062,14.3734219 16.6201875,14.625 16.3094062,14.625 L16.3094062,14.625 Z" id="Shape"></path>
                </g>
            </g>
        </g>
    </g>
</svg>