<?xml version="1.0" encoding="UTF-8" standalone="no"?>
<svg width="66px" height="66px" viewBox="0 0 66 66" version="1.1" xmlns="http://www.w3.org/2000/svg" xmlns:xlink="http://www.w3.org/1999/xlink" xmlns:sketch="http://www.bohemiancoding.com/sketch/ns">
    <!-- Generator: sketchtool 3.5.2 (25235) - http://www.bohemiancoding.com/sketch -->
    <title>Networker Icon</title>
    <desc>Created with sketchtool.</desc>
    <defs></defs>
    <g id="Tablet-Pixel-Perfect" stroke="none" stroke-width="1" fill="none" fill-rule="evenodd" sketch:type="MSPage">
        <g id="02_03_TabletDash_GroupCreated" sketch:type="MSArtboardGroup" transform="translate(-331.000000, -367.000000)">
            <g id="Invite-People" sketch:type="MSLayerGroup" transform="translate(115.000000, 341.000000)">
                <g id="Networker-Icon" transform="translate(210.000000, 20.000000)" sketch:type="MSShapeGroup">
                    <path d="M20.4285714,48.2857143 L20.4285714,25.0714286 C20.4285714,25.0714286 20.4401786,24.0267857 20.9833929,22.75 L11.1428571,22.75 C11.1428571,22.75 6.5,22.75 6.5,27.3928571 L6.5,43.6428571 C6.5,48.2857143 11.1428571,48.2857143 11.1428571,48.2857143 L11.1428571,71.5 L25.0714286,71.5 L25.0714286,52.9285714 C25.0714286,52.9285714 20.4285714,52.9285714 20.4285714,48.2857143 L20.4285714,48.2857143 Z" id="Shape" stroke="#FF6600" stroke-width="2"></path>
                    <path d="M20.4285714,20.4285714 C21.6357143,20.4285714 22.7523214,20.0942857 23.74125,19.5557143 C23.8782143,19.4721429 24.0314286,19.3978571 24.1776786,19.3166071 C26.1067857,18.0792857 27.3928571,15.9273214 27.3928571,13.4642857 C27.3928571,9.61767857 24.2751786,6.5 20.4285714,6.5 C16.5819643,6.5 13.4642857,9.61767857 13.4642857,13.4642857 C13.4642857,17.3108929 16.5819643,20.4285714 20.4285714,20.4285714 L20.4285714,20.4285714 Z" id="Shape" stroke="#FF6600" stroke-width="2"></path>
                    <path d="M66.8571429,22.75 L57.0189286,22.75 C57.5598214,24.0267857 57.5714286,25.0714286 57.5714286,25.0714286 L57.5714286,48.2857143 C57.5714286,52.9285714 52.9285714,52.9285714 52.9285714,52.9285714 L52.9285714,71.5 L66.8571429,71.5 L66.8571429,48.2857143 C66.8571429,48.2857143 71.5,48.2857143 71.5,43.6428571 L71.5,27.3928571 C71.5,27.3928571 71.5,22.75 66.8571429,22.75 L66.8571429,22.75 Z" id="Shape" stroke="#FF6600" stroke-width="2"></path>
                    <path d="M53.8107143,19.3119643 C53.9616071,19.3932143 54.1217857,19.4698214 54.2610714,19.5557143 C55.25,20.0942857 56.3642857,20.4285714 57.5714286,20.4285714 C61.4180357,20.4285714 64.5357143,17.3108929 64.5357143,13.4642857 C64.5357143,9.61767857 61.4180357,6.5 57.5714286,6.5 C53.7248214,6.5 50.6071429,9.61767857 50.6071429,13.4642857 C50.6071429,15.9226786 51.8885714,18.0723214 53.8107143,19.3119643 L53.8107143,19.3119643 Z" id="Shape" stroke="#FF6600" stroke-width="2"></path>
                    <circle id="Oval" stroke="#FF6600" stroke-width="2" cx="39" cy="13.4642857" r="6.96428571"></circle>
                    <path d="M52.9285714,27.3928571 C52.9285714,27.3928571 52.9285714,22.75 48.2857143,22.75 L29.7142857,22.75 C29.7142857,22.75 25.0714286,22.75 25.0714286,27.3928571 L25.0714286,43.6428571 C25.0714286,48.2857143 29.7142857,48.2857143 29.7142857,48.2857143 L29.7142857,71.5 L48.2857143,71.5 L48.2857143,48.2857143 C48.2857143,48.2857143 52.9285714,48.2857143 52.9285714,43.6428571 L52.9285714,27.3928571 L52.9285714,27.3928571 Z" id="Shape" stroke="#FF6600" stroke-width="2"></path>
                    <rect id="Rectangle-21" x="0" y="0" width="78" height="78"></rect>
                </g>
            </g>
        </g>
    </g>
</svg>