<?xml version="1.0" encoding="UTF-8" standalone="no"?>
<svg width="17px" height="17px" viewBox="0 0 17 17" version="1.1" xmlns="http://www.w3.org/2000/svg" xmlns:xlink="http://www.w3.org/1999/xlink" xmlns:sketch="http://www.bohemiancoding.com/sketch/ns">
    <!-- Generator: sketchtool 3.4 (381) - http://www.bohemiancoding.com/sketch -->
    <title>OpenREver_Icon</title>
    <desc>Created with sketchtool.</desc>
    <defs></defs>
    <g id="Mobile-Pixel-Perfect" stroke="none" stroke-width="1" fill="none" fill-rule="evenodd" sketch:type="MSPage">
        <g id="00_00_MobileDash_Menu-" sketch:type="MSArtboardGroup" transform="translate(-16.000000, -317.000000)">
            <g id="Open-Rever-App" sketch:type="MSLayerGroup" transform="translate(0.000000, 300.000000)">
                <g id="OpenREver_Icon" transform="translate(16.000000, 17.000000)" sketch:type="MSShapeGroup">
                    <path d="M12.0116384,4.5028125 C11.0690912,3.68959821 9.83527794,3.19660714 8.48634126,3.19660714 C5.52445708,3.19660714 3.12313825,5.56834821 3.12313825,8.49375 C3.12313825,8.56607143 3.12517224,8.63839286 3.12842661,8.7103125 L0.327226979,6.18308036 C1.34218386,2.6775 4.61119928,0.112098214 8.48634126,0.112098214 C13.1726351,0.112098214 16.9717062,3.86477679 16.9717062,8.49375 C16.9717062,8.65084821 16.9672314,8.80794643 16.9582819,8.96303571 L12.0116384,4.5028125 Z" id="Fill-12" fill="#1783C6"></path>
                    <path d="M4.75524587,12.2980179 C5.7201668,13.2213214 7.03533938,13.7906518 8.48638194,13.7906518 C11.4478593,13.7906518 13.8487714,11.4189107 13.8487714,8.49350893 C13.8487714,8.42279464 13.8471442,8.35248214 13.8447034,8.28136607 L16.6442758,10.8077946 C15.6280986,14.3113661 12.3603035,16.8751607 8.48638194,16.8751607 C3.79927446,16.8751607 0.000203398172,13.1228839 0.000203398172,8.49350893 C0.000203398172,8.33761607 0.00467815796,8.18292857 0.0132208812,8.02864286 L4.75524587,12.2980179 Z" id="Fill-14" fill="#FFFFFF"></path>
                </g>
            </g>
        </g>
    </g>
</svg>