<?xml version="1.0" encoding="UTF-8" standalone="no"?>
<svg width="24px" height="17px" viewBox="0 0 24 17" version="1.1" xmlns="http://www.w3.org/2000/svg" xmlns:xlink="http://www.w3.org/1999/xlink">
    <!-- Generator: sketchtool 3.8.3 (29802) - http://www.bohemiancoding.com/sketch -->
    <title>F19C1A3D-4583-4323-B445-3ABD97DA83BC</title>
    <desc>Created with sketchtool.</desc>
    <defs></defs>
    <g id="Desktop" stroke="none" stroke-width="1" fill="none" fill-rule="evenodd">
        <g id="Desktop_Groups" transform="translate(-532.000000, -27.000000)">
            <g id="ManageGroupsIcon" transform="translate(532.000000, 23.000000)">
                <path d="M6.13145693,4.78793651 C7.62974265,4.78793651 8.84820419,6.03460317 8.84820419,7.56703175 C8.84820419,9.09973016 7.62974265,10.3463968 6.13145693,10.3463968 C4.63396243,10.3463968 3.41523715,9.09973016 3.41523715,7.56703175 C3.41523715,6.03460317 4.63396243,4.78793651 6.13145693,4.78793651 M9.0831932,15.0022381 L9.43897342,14.8163175 C10.0677207,15.4420794 10.9238086,15.8301111 11.8682481,15.8301111 C12.8126877,15.8301111 13.6687756,15.4420794 14.2975229,14.8163175 L14.6530394,15.0022381 C16.0695668,15.7210952 16.7805998,16.0821429 17.1028855,17.7060476 L17.1049954,17.7060476 C17.2168196,18.2179365 17.2294789,18.460254 17.2294789,18.4616032 C17.2445119,18.9125079 17.0860064,19.3372381 16.7837646,19.6575397 C16.4809954,19.9778413 16.071413,20.1543175 15.6304459,20.1543175 L8.10684155,20.1543175 C7.66561078,20.1543175 7.25523715,19.9778413 6.95088551,19.657 C6.64706133,19.3364286 6.48670968,18.9108889 6.49936902,18.4723968 C6.49989649,18.4664603 6.51255583,18.3185873 6.63387452,17.7065873 L6.63440199,17.7038889 C6.9566877,16.081873 7.66745693,15.7208254 9.0831932,15.0022381 M11.8682481,9.48344444 C13.3662701,9.48344444 14.5847317,10.7301111 14.5847317,12.2625397 C14.5847317,13.7949683 13.3662701,15.0416349 11.8682481,15.0416349 C10.3702262,15.0416349 9.15176463,13.7949683 9.15176463,12.2625397 C9.15176463,10.7301111 10.3702262,9.48344444 11.8682481,9.48344444 M17.6047756,10.3463968 C16.1064899,10.3463968 14.8882921,9.09973016 14.8882921,7.56703175 C14.8882921,6.03460317 16.1064899,4.78793651 17.6047756,4.78793651 C19.1025339,4.78793651 20.3212591,6.03460317 20.3212591,7.56703175 C20.3212591,9.09973016 19.1025339,10.3463968 17.6047756,10.3463968 M2.37031408,16.2462063 L6.31633605,16.2462063 C6.17840199,16.5082222 6.06156682,16.8096349 5.96820419,17.1655556 L5.95580858,17.1628571 C5.95580858,17.1628571 5.73347891,18.3339683 5.73057781,18.4356984 C5.71079759,19.1013968 5.94816023,19.7295873 6.39835803,20.2050476 C6.84881957,20.6799683 7.45567671,20.9414444 8.10710529,20.9414444 L15.6301822,20.9414444 C16.2818745,20.9414444 16.8882042,20.6796984 17.3368196,20.2050476 C17.7859624,19.7293175 18.0209514,19.101127 17.9990613,18.4348889 C17.9977426,18.397381 17.9824459,18.0517143 17.8081163,17.3207143 L17.7171273,16.9380794 C17.7171273,16.9380794 17.5282921,16.450746 17.420424,16.2464762 L21.3664459,16.2464762 C22.0181383,16.2464762 22.6247317,15.9847302 23.0736108,15.5098095 C23.5222262,15.034619 23.7574789,14.4058889 23.7353251,13.7391111 C23.7342701,13.7021429 23.7187097,13.356746 23.54438,12.6254762 L23.5422701,12.6260159 C23.1163361,10.8164603 22.1571273,10.3248095 20.7318965,9.60109524 L20.5330394,9.49693651 C20.8848635,8.93998413 21.091369,8.27833333 21.091369,7.56730159 C21.091369,5.60042857 19.5271492,4.00026984 17.6047756,4.00026984 C15.6821383,4.00026984 14.1181822,5.60042857 14.1181822,7.56730159 C14.1181822,9.5341746 15.6821383,11.1346032 17.6047756,11.1346032 C18.5489514,11.1346032 19.4053031,10.7468413 20.0337866,10.1210794 L20.3898306,10.307 C21.806358,11.0258571 22.5168635,11.3869048 22.8391492,13.0108095 L22.8412591,13.0105397 C22.9530833,13.5229683 22.9657426,13.7652857 22.9657426,13.7660952 C22.9810394,14.2172698 22.8225339,14.6417302 22.5200284,14.9620317 C22.2177866,15.2826032 21.8082042,15.4590794 21.3667097,15.4590794 L16.838358,15.4590794 C16.3573031,14.9882063 15.7401602,14.6746508 14.9958965,14.296873 L14.7970394,14.1924444 C15.1488635,13.6357619 15.355369,12.9738413 15.355369,12.2628095 C15.355369,10.2959365 13.7911492,8.69577778 11.8687756,8.69577778 C9.94640199,8.69577778 8.38218221,10.2959365 8.38218221,12.2628095 C8.38218221,12.9741111 8.58895144,13.6352222 8.94077561,14.1924444 L8.74165474,14.296873 C7.99765474,14.674381 7.38051188,14.9882063 6.89945693,15.4590794 L2.37031408,15.4590794 C1.92908331,15.4590794 1.51950089,15.282873 1.2169954,14.9620317 C0.914489901,14.6417302 0.755984406,14.2172698 0.771281109,13.7687937 C0.771281109,13.7655556 0.783676714,13.5237778 0.895764626,13.0105397 L0.897347044,13.0105397 C1.21963276,11.3866349 1.93040199,11.0258571 3.34692946,10.3067302 L3.70270968,10.1208095 C4.3311932,10.7465714 5.18754485,11.1343333 6.13145693,11.1343333 C8.0540943,11.1343333 9.61831408,9.53390476 9.61831408,7.56703175 C9.61831408,5.60015873 8.0540943,4 6.13145693,4 C4.20934704,4 2.64512726,5.60015873 2.64512726,7.56703175 C2.64512726,8.27833333 2.85189649,8.93971429 3.20372067,9.49666667 L3.00459979,9.6008254 C1.57963276,10.3245397 0.62016023,10.8161905 0.194489901,12.625746 L0.192116274,12.6252063 C0.0185778127,13.3564762 0.00248990066,13.701873 0.0014349556,13.7391111 C-0.0207188906,14.405619 0.21427012,15.0340794 0.663149241,15.5095397 C1.11202836,15.985 1.71862177,16.2462063 2.37031408,16.2462063" id="Fill-1" fill="#9B9B9B"></path>
                <polygon id="Clip-2" points="12 24 0 24 0 0 12 0 24 0 24 24 12 24"></polygon>
            </g>
        </g>
    </g>
</svg>