<?xml version="1.0" encoding="UTF-8" standalone="no"?>
<svg width="20px" height="18px" viewBox="0 0 20 18" version="1.1" xmlns="http://www.w3.org/2000/svg" xmlns:xlink="http://www.w3.org/1999/xlink" xmlns:sketch="http://www.bohemiancoding.com/sketch/ns">
    <!-- Generator: sketchtool 3.4 (381) - http://www.bohemiancoding.com/sketch -->
    <title>RevStream_Icon_Off</title>
    <desc>Created with sketchtool.</desc>
    <defs></defs>
    <g id="Mobile-Pixel-Perfect" stroke="none" stroke-width="1" fill="none" fill-rule="evenodd" sketch:type="MSPage">
        <g id="00_00_MobileDash_Menu-" sketch:type="MSArtboardGroup" transform="translate(-13.000000, -66.000000)" fill="#FFFFFF">
            <g id="RevStream" sketch:type="MSLayerGroup" transform="translate(-1.000000, 50.000000)">
                <g id="RevStream_Icon_Off" transform="translate(14.000000, 16.000000)" sketch:type="MSShapeGroup">
                    <path d="M8.38357977,0.0686722689 L0.972762646,0.0686722689 C0.436420233,0.0686722689 0,0.492731092 0,1.01405042 L0,7.48172269 C0,8.00304202 0.436420233,8.42710084 0.972762646,8.42710084 L8.38357977,8.42710084 C8.92,8.42710084 9.35634241,8.00304202 9.35634241,7.48172269 L9.35634241,1.01412605 C9.35634241,0.492806723 8.92,0.0686722689 8.38357977,0.0686722689 L8.38357977,0.0686722689 Z M8.18902724,7.29264706 L1.16731518,7.29264706 L1.16731518,1.20320168 L8.18902724,1.20320168 L8.18902724,7.29264706 L8.18902724,7.29264706 Z" id="Shape"></path>
                    <path d="M18.9912062,0.0686722689 L11.5803891,0.0686722689 C11.0439689,0.0686722689 10.6076265,0.492731092 10.6076265,1.01405042 L10.6076265,7.48172269 C10.6076265,8.00304202 11.0439689,8.42710084 11.5803891,8.42710084 L18.9912062,8.42710084 C19.5276265,8.42710084 19.9639689,8.00304202 19.9639689,7.48172269 L19.9639689,1.01412605 C19.9639689,0.492806723 19.5275486,0.0686722689 18.9912062,0.0686722689 L18.9912062,0.0686722689 Z M18.7966537,7.29264706 L11.7749416,7.29264706 L11.7749416,1.20320168 L18.7966537,1.20320168 L18.7966537,7.29264706 L18.7966537,7.29264706 Z" id="Shape"></path>
                    <path d="M8.38357977,9.61343697 L0.972762646,9.61343697 C0.436420233,9.61343697 0,10.0374958 0,10.5588151 L0,17.026563 C0,17.5478824 0.436420233,17.9719412 0.972762646,17.9719412 L8.38357977,17.9719412 C8.92,17.9719412 9.35634241,17.5478824 9.35634241,17.026563 L9.35634241,10.5588151 C9.35634241,10.0374958 8.92,9.61343697 8.38357977,9.61343697 L8.38357977,9.61343697 Z M8.18902724,16.8374118 L1.16731518,16.8374118 L1.16731518,10.7478151 L8.18902724,10.7478151 L8.18902724,16.8374118 L8.18902724,16.8374118 Z" id="Shape"></path>
                    <path d="M18.9912062,9.61343697 L11.5803891,9.61343697 C11.0439689,9.61343697 10.6076265,10.0374958 10.6076265,10.5588151 L10.6076265,17.026563 C10.6076265,17.5478824 11.0439689,17.9719412 11.5803891,17.9719412 L18.9912062,17.9719412 C19.5276265,17.9719412 19.9639689,17.5478824 19.9639689,17.026563 L19.9639689,10.5588151 C19.9639689,10.0374958 19.5275486,9.61343697 18.9912062,9.61343697 L18.9912062,9.61343697 Z M18.7966537,16.8374118 L11.7749416,16.8374118 L11.7749416,10.7478151 L18.7966537,10.7478151 L18.7966537,16.8374118 L18.7966537,16.8374118 Z" id="Shape"></path>
                </g>
            </g>
        </g>
    </g>
</svg>