<?xml version="1.0" encoding="UTF-8" standalone="no"?>
<svg width="22px" height="21px" viewBox="0 0 22 21" version="1.1" xmlns="http://www.w3.org/2000/svg" xmlns:xlink="http://www.w3.org/1999/xlink" xmlns:sketch="http://www.bohemiancoding.com/sketch/ns">
    <!-- Generator: sketchtool 3.5.2 (25235) - http://www.bohemiancoding.com/sketch -->
    <title>Shape</title>
    <desc>Created with sketchtool.</desc>
    <defs></defs>
    <g id="Mobile-Pixel-Perfect" stroke="none" stroke-width="1" fill="none" fill-rule="evenodd" sketch:type="MSPage">
        <g id="02_01_MobileDash_ManageGroups" sketch:type="MSArtboardGroup" transform="translate(-131.000000, -357.000000)" fill="#FFFFFF">
            <g id="People" sketch:type="MSLayerGroup" transform="translate(10.000000, 223.000000)">
                <g id="Group" transform="translate(0.000000, 61.000000)" sketch:type="MSShapeGroup">
                    <g id="Shape-+-Edit" transform="translate(77.000000, 73.000000)">
                        <path d="M57.6060996,0.399908615 L44.8438281,13.1497397 C44.6926975,13.300723 44.6102714,13.5065873 44.5965499,13.7124516 L44.5003539,20.2040075 C44.5003539,20.4235799 44.5827799,20.6294442 44.7476321,20.7804275 C44.8987627,20.9314109 45.1185494,21 45.3246146,21 L45.3383361,21 L51.6439307,20.945119 C51.8637174,20.945119 52.0697826,20.8764814 52.2209133,20.7255465 L65.0931023,7.86590503 C65.409085,7.55023026 65.409085,7.02873962 65.0931023,6.69935671 L58.7738346,0.386152035 C58.4441303,0.0842338494 57.9220823,0.0842338494 57.6060996,0.399908615 L57.6060996,0.399908615 Z M51.2867834,19.3256692 L46.1626453,19.3943068 L46.2450714,14.0692993 L54.7624485,5.56022468 L59.9140781,10.7068326 L51.2867834,19.3256692 L51.2867834,19.3256692 Z M61.0679947,9.55399242 L55.9301351,4.4073845 L58.1968521,2.14287702 L63.3347602,7.28948494 L61.0679947,9.55399242 L61.0679947,9.55399242 Z" id="Shape"></path>
                    </g>
                </g>
            </g>
        </g>
    </g>
</svg>